<svg width="203" height="45" viewBox="0 0 203 45" fill="none" xmlns="http://www.w3.org/2000/svg">
<path d="M27.4014 28.0887L27.4014 44.3209C27.4014 44.9248 26.6725 45.2268 26.2455 44.7998L0.199962 18.7542C-0.227014 18.3272 0.0749397 17.5983 0.67884 17.5983L12.5445 17.5983C12.9196 17.5983 13.2216 17.294 13.2216 16.9213L13.2216 0.67968C13.2216 0.0734213 13.9552 -0.228529 14.3822 0.203166L40.5103 26.6757C40.942 27.1121 40.6165 27.8505 40.0031 27.8292L28.102 27.4117C27.7199 27.3975 27.4014 27.7042 27.4014 28.0887Z" fill="#CEF300"/>
<path d="M184.632 17.5956L191.259 10.705H202.772L190.38 22.5175L202.772 34.33H191.259L184.632 27.4218L178.005 34.33H166.474L178.866 22.5175L166.474 10.705H178.005L184.632 17.5956Z" fill="black"/>
<path d="M138.514 34.33V10.705H166.165V16.7518H147.725V19.7753H166.165V25.2421H147.725V28.2655H166.165V34.33H138.514Z" fill="black"/>
<path d="M124.987 23.1854V10.6698H134.216V34.2948H123.844L111.153 19.8632V34.2948H101.942V10.6698H114.616L124.987 23.1854Z" fill="black"/>
<path d="M88.9246 10.6698H98.1355V34.2948H88.9246V10.6698Z" fill="black"/>
<path d="M67.9438 26.2264H63.9185V34.2948H54.7075V10.6698H63.9185V18.7382H67.9438L76.6099 10.6698H88.7036L76.4517 22.4823L88.7036 34.2948H76.6099L67.9438 26.2264Z" fill="black"/>
</svg>
