<svg width="30" height="26" viewBox="0 0 30 26" fill="none" xmlns="http://www.w3.org/2000/svg">
<g clip-path="url(#clip0_149_969)">
<path d="M21.9204 12.6944C19.146 10.0917 17.8412 5.88205 17.8412 0.388225V0.0448608H11.4409V0.388225C11.4409 5.88892 10.1361 10.0986 7.36173 12.6944C4.62168 15.2628 0 15.7435 0 15.7435V25.9551L0.363966 25.9345C10.7748 25.392 13.7826 18.8475 14.641 14.7958C15.4995 18.8475 18.5073 25.3989 28.9181 25.9345L29.2821 25.9551V15.7435C29.2821 15.7435 24.6604 15.2628 21.9204 12.6944Z" fill="white"/>
<path d="M16.7701 22.8305C15.9598 22.4665 15.3074 21.821 14.9503 21.0107C14.8335 20.7428 14.449 20.7428 14.3322 21.0107C13.9683 21.821 13.3227 22.4734 12.5124 22.8305C12.2446 22.9472 12.2446 23.3318 12.5124 23.4485C13.3227 23.8125 13.9751 24.458 14.3322 25.2684C14.449 25.5362 14.8335 25.5362 14.9503 25.2684C15.3142 24.458 15.9598 23.8056 16.7701 23.4485C17.0379 23.3318 17.0379 22.9472 16.7701 22.8305Z" fill="white"/>
</g>
<defs>
<clipPath id="clip0_149_969">
<rect width="29.2821" height="25.9103" fill="white" transform="translate(0 0.0448608)"/>
</clipPath>
</defs>
</svg>
