<svg width="130" height="26" viewBox="0 0 130 26" fill="none" xmlns="http://www.w3.org/2000/svg">
<g clip-path="url(#clip0_149_984)">
<path d="M21.9204 12.6944C19.146 10.0917 17.8412 5.88205 17.8412 0.388225V0.0448608H11.4409V0.388225C11.4409 5.88892 10.1361 10.0986 7.36173 12.6944C4.62168 15.2628 0 15.7435 0 15.7435V25.9551L0.363966 25.9345C10.7748 25.392 13.7826 18.8475 14.641 14.7958C15.4995 18.8475 18.5073 25.3989 28.9181 25.9345L29.2821 25.9551V15.7435C29.2821 15.7435 24.6604 15.2628 21.9204 12.6944Z" fill="white"/>
<path d="M16.7701 22.8305C15.9598 22.4665 15.3074 21.821 14.9503 21.0107C14.8335 20.7428 14.449 20.7428 14.3322 21.0107C13.9683 21.821 13.3227 22.4734 12.5124 22.8305C12.2446 22.9472 12.2446 23.3318 12.5124 23.4485C13.3227 23.8125 13.9751 24.458 14.3322 25.2684C14.449 25.5362 14.8335 25.5362 14.9503 25.2684C15.3142 24.458 15.9598 23.8056 16.7701 23.4485C17.0379 23.3318 17.0379 22.9472 16.7701 22.8305Z" fill="white"/>
</g>
<path d="M120.002 20.0585C119.392 20.8471 119.875 21.3812 120.638 21.3812H120.918V21.9662H115.958V21.3812H116.543C117.586 21.3812 118.247 20.8725 119.163 19.677L121.757 16.3448L119.112 12.3514C118.273 11.0796 117.56 10.6471 116.543 10.6471H115.958V10.0621H122.241V10.6471H121.961C121.147 10.6471 120.715 11.105 121.274 11.9698L123.055 14.6661L125.166 11.9698C125.776 11.1813 125.293 10.6471 124.53 10.6471H124.25V10.0621H129.21V10.6471H128.625C127.582 10.6471 126.946 11.1559 126.005 12.3514L123.589 15.4546L126.361 19.677C127.201 20.9488 127.913 21.3812 128.93 21.3812H129.515V21.9662H123.233V21.3812H123.513C124.327 21.3812 124.759 20.9234 124.199 20.0585L122.266 17.1334L120.002 20.0585Z" fill="white"/>
<path d="M107.673 15.48C107.673 17.9982 108.639 21.2286 111.692 21.2286C113.193 21.2286 114.642 20.4655 114.642 18.6595H115.202V20.8216C113.93 21.8136 112.404 22.0934 111.361 22.0934C108.08 22.0934 105.485 19.3463 105.485 15.9633C105.485 12.6566 107.902 9.93491 110.903 9.93491C113.778 9.93491 115.965 12.4531 115.965 15.48H107.673ZM113.828 14.7932C113.727 12.9618 112.989 10.7743 110.878 10.7743C108.817 10.7743 107.927 12.8855 107.724 14.7932H113.828Z" fill="white"/>
<path d="M102.022 14.1573C102.022 12.3005 101.03 11.105 99.5293 11.105C98.1557 11.105 96.8585 12.1224 96.5024 13.8521V19.7533C96.5024 20.847 96.9602 21.3812 97.9522 21.3812H98.3338V21.9662H92.7124V21.3812H93.0939C94.0859 21.3812 94.5692 20.847 94.5692 19.7533V13.903C94.5692 12.7838 93.9333 12.2242 92.8396 12.2242H92.458V11.69C94.6455 11.4865 95.1542 11.0287 95.8919 10.0621H96.5024V11.9189C97.5707 10.5199 98.9188 9.93491 100.216 9.93491C102.429 9.93491 103.93 11.6137 103.93 14.1573V19.7533C103.93 20.847 104.413 21.3812 105.38 21.3812H105.761V21.9662H100.14V21.3812H100.547C101.513 21.3812 102.022 20.847 102.022 19.7533V14.1573Z" fill="white"/>
<path d="M86.842 12.2242H86.4604V11.69C88.648 11.4865 89.1567 11.0287 89.8943 10.0621H90.5048V19.7533C90.5048 20.847 90.9627 21.3812 91.9547 21.3812H92.3362V21.9662H86.7148V21.3812H87.0964C88.0884 21.3812 88.5717 20.847 88.5717 19.7533V13.903C88.5717 12.7838 87.9358 12.2242 86.842 12.2242ZM87.8594 6.39928L89.5637 4.72049L91.2425 6.39928L89.5637 8.1035L87.8594 6.39928Z" fill="white"/>
<path d="M78.3887 21.9663V21.3304H78.9992C79.864 21.3304 80.4491 20.7453 79.4062 19.5244L74.3698 13.5214V19.3463C74.3698 20.669 74.8531 21.3304 75.8451 21.3304H76.8626V21.9663H69.6387V21.3304H70.6307C71.6481 21.3304 72.1314 20.669 72.1314 19.3463V6.80628C72.1314 5.4836 71.6481 4.79682 70.6307 4.79682H69.6387V4.16092H76.8626V4.79682H75.8451C74.8531 4.79682 74.3698 5.4836 74.3698 6.80628V12.8855L79.4825 7.44219C81.263 5.53447 80.4491 4.79682 78.9483 4.79682H78.5668V4.16092H85.1548V4.79682H84.5188C83.5014 4.79682 82.4585 5.4836 81.2376 6.80628L76.2775 12.2496L82.3059 19.5244C83.3488 20.7708 84.5188 21.3304 85.6126 21.3304H86.5029V21.9663H78.3887Z" fill="white"/>
<path d="M59.1072 4.79682H58.1152V4.16092H65.3391V4.79682H64.3217C63.3297 4.79682 62.8464 5.4836 62.8464 6.80628V19.3463C62.8464 20.669 63.3297 21.3304 64.3217 21.3304H65.3391V21.9663H58.1152V21.3304H59.1072C60.1247 21.3304 60.608 20.669 60.608 19.3463V6.80628C60.608 5.4836 60.1247 4.79682 59.1072 4.79682Z" fill="white"/>
<path d="M43.5475 16.2431L42.5809 18.685C41.8942 20.4146 42.0977 21.3304 43.9799 21.3304H44.3615V21.9663H38.2822V21.3304H38.9181C39.9356 21.3304 40.6224 20.6436 41.1565 19.3209L47.134 4.41528C47.2612 4.08461 47.4647 3.90656 47.6682 3.90656C47.8717 3.90656 48.1006 4.08461 48.2532 4.44072L54.4342 19.3209C54.9938 20.6436 55.935 21.3304 57.0541 21.3304H57.4102V21.9663H50.0083V21.3304H50.4407C52.0432 21.3304 52.4756 20.5418 51.9415 19.1683L50.7714 16.2177C50.5933 15.7853 50.2881 15.5818 49.8303 15.5818H44.5141C44.0308 15.5818 43.7256 15.7853 43.5475 16.2431ZM44.8193 14.4626H49.5759C49.932 14.4626 50.0083 14.31 49.8811 13.9793L47.134 7.03521L44.4378 13.9284C44.2852 14.2845 44.4378 14.4626 44.8193 14.4626Z" fill="white"/>
<defs>
<clipPath id="clip0_149_984">
<rect width="29.2821" height="25.9103" fill="white" transform="translate(0 0.0448608)"/>
</clipPath>
</defs>
</svg>
